<svg xmlns="http://www.w3.org/2000/svg" viewBox="0 0 24 24" width="100%" height="100%"><path d="M12.5 3a8.5 8.5 0 1 0 0 17 8.5 8.5 0 0 0 0-17m6.88 5.5h-3.06a16 16 0 0 0-.99-3.95 7.5 7.5 0 0 1 4.05 3.95m-3.96 5H9.58a24 24 0 0 1 0-4h5.84q.15 2 0 4m-4.43-9.35q1.51-.3 3.02 0c.6.98 1.05 2.51 1.3 4.35H9.69c.25-1.84.71-3.37 1.3-4.35m-1.32.4-.23.6q-.51 1.46-.76 3.35H5.62a7.5 7.5 0 0 1 4.05-3.95M5 11.5q0-1.02.27-2h3.31q-.15 2 0 4H5.27a8 8 0 0 1-.27-2m.62 3h3.06a16 16 0 0 0 .99 3.95 7.5 7.5 0 0 1-4.05-3.95m8.39 4.35q-1.51.3-3.02 0a12 12 0 0 1-1.3-4.35h5.62a12 12 0 0 1-1.3 4.35m1.32-.4.23-.6q.51-1.46.76-3.35h3.06a7.5 7.5 0 0 1-4.05 3.95m1.09-4.95q.15-2 0-4h3.31a7.5 7.5 0 0 1 0 4z"/></svg>